<svg width="711" height="340" viewBox="0 0 711 340" fill="none" xmlns="http://www.w3.org/2000/svg">
<path d="M280.082 197.871C273.711 195.859 270.274 189.949 269.771 180.141C269.688 179.051 269.436 175.447 269.017 169.327C268.682 163.124 268.221 155.328 267.634 145.939C267.131 137.723 266.586 128.879 265.999 119.407L264.49 92.4974C263.903 82.5217 263.442 75.5219 263.107 71.4981C262.856 67.3904 262.688 64.2468 262.604 62.0673C262.436 58.4626 262.353 55.4028 262.353 52.8879C262.353 50.2892 262.436 48.2354 262.604 46.7264C263.107 43.6248 264.239 41.1518 265.999 39.3075C268.346 36.625 271.322 35.2418 274.927 35.158C275.514 35.0741 276.059 35.0322 276.562 35.0322C279.747 35.0322 282.43 36.122 284.609 38.3016C286.621 39.9782 288.046 42.2835 288.885 45.2175C289.807 48.1516 290.435 52.7203 290.771 58.9237C294.795 127.748 297.016 162.16 297.435 162.16C298.609 165.764 301.04 167.567 304.728 167.567C305.231 167.567 306.908 167.357 309.758 166.938C312.608 166.519 315.836 166.016 319.44 165.429C326.734 164.255 332.602 163.333 337.045 162.663C341.571 161.908 345.05 161.363 347.481 161.028C349.996 160.693 351.882 160.483 353.14 160.399C354.397 160.232 355.529 160.148 356.535 160.148C363.409 160.148 368.02 162.663 370.367 167.692C371.205 169.453 371.624 171.297 371.624 173.225C371.624 174.064 371.541 174.944 371.373 175.866C370.87 178.716 369.571 181.147 367.475 183.159C366.301 184.249 365.002 185.129 363.577 185.8C362.152 186.47 360.014 187.141 357.164 187.812C354.397 188.398 350.415 189.111 345.218 189.949C333.23 191.961 323.38 193.596 315.668 194.853C307.956 196.111 301.878 197.075 297.435 197.745C293.076 198.332 290.058 198.709 288.382 198.877C286.789 198.961 285.615 199.003 284.861 199.003C284.022 199.003 283.352 198.961 282.849 198.877C281.927 198.709 281.047 198.416 280.208 197.997C280.124 197.997 280.082 197.955 280.082 197.871Z" fill="#EFF1C5"/>
<path d="M170.283 198.124C156.955 196.196 145.428 190.202 135.704 180.142C125.98 169.999 119.357 157.089 115.836 141.413C115.585 139.988 115.291 138.437 114.956 136.761C114.704 135 114.495 133.491 114.327 132.234C113.992 129.132 113.824 125.402 113.824 121.043C113.824 116.767 113.992 113.079 114.327 109.977C116.591 92.7083 122.207 77.8704 131.177 65.4636C140.231 52.973 151.589 44.3386 165.254 39.5603C170.451 37.7161 175.9 36.7939 181.6 36.7939C182.523 36.7939 183.445 36.8359 184.367 36.9197C199.54 37.5903 212.743 43.7937 223.976 55.5299C232.527 64.7511 238.227 74.6849 241.077 85.3313C243.928 95.9776 245.353 105.45 245.353 113.749C245.353 119.282 244.892 124.857 243.97 130.473C240.197 150.76 231.898 167.275 219.072 180.017C209.18 189.406 198.45 195.232 186.882 197.495C184.534 197.83 182.271 198.04 180.091 198.124C177.912 198.208 176.319 198.25 175.313 198.25C173.385 198.25 171.709 198.208 170.283 198.124ZM183.361 169.077C184.115 168.825 185.037 168.49 186.127 168.071C187.301 167.652 188.391 167.191 189.397 166.688C200.63 160.82 208.007 152.521 211.528 141.79C215.132 130.976 216.935 121.755 216.935 114.127C216.935 107.253 215.929 100.295 213.917 93.2531C212.995 90.5706 211.779 87.8042 210.27 84.954C208.761 82.1038 207.168 79.6728 205.492 77.6608C199.791 70.703 194.762 66.9307 190.403 66.3439C186.127 65.6732 183.361 65.3379 182.103 65.3379C176.068 65.3379 170.074 67.4756 164.122 71.7509C156.745 77.3674 151.212 84.7444 147.524 93.8819C143.919 102.935 142.117 111.905 142.117 120.791C142.117 122.719 142.201 124.647 142.368 126.575C143.709 141.665 148.697 153.359 157.332 161.658C163.2 167.107 169.655 169.831 176.696 169.831C178.876 169.831 181.097 169.58 183.361 169.077Z" fill="#EFF1C5"/>
<path d="M20.8736 206.171C15.5923 204.411 12.1972 200.555 10.6883 194.603C10.5206 193.764 10.311 192.549 10.0595 190.956C9.89189 189.279 9.6404 186.597 9.30508 182.908C9.05359 179.22 8.67636 173.855 8.17338 166.813C8.08955 165.891 8.00572 164.927 7.92189 163.921C6.16147 139.107 4.77828 119.827 3.77233 106.079C2.76638 92.2467 2.01191 81.9776 1.50893 75.2712C1.00596 68.5649 0.628722 63.4094 0.377233 59.8047C0.125745 56.9545 0 54.4815 0 52.3858C0 50.2062 0.125745 48.4458 0.377233 47.1045C0.880211 44.3381 2.05382 41.9909 3.89807 40.0628C7.16743 36.6258 12.4906 33.9014 19.8676 31.8894C27.3284 29.8775 35.6695 28.8716 44.8907 28.8716C49.5014 28.8716 53.3156 29.0392 56.3335 29.3746C59.3513 29.7099 62.6207 30.4643 66.1415 31.638C78.9674 35.6618 89.3623 42.8711 97.3261 53.266C100.512 57.6251 103.027 62.6549 104.871 68.3553C106.715 74.0557 107.637 79.6304 107.637 85.0793C107.637 94.6359 105.164 103.815 100.218 112.617C95.2723 121.419 88.1887 129.341 78.9674 136.383C73.77 140.323 68.6983 143.509 63.7524 145.94C58.8903 148.287 52.603 150.676 44.8907 153.107C39.6933 154.532 36.885 157.131 36.4659 160.903C36.4659 161.574 36.5078 163.292 36.5916 166.059C36.6754 168.825 36.8431 172.011 37.0946 175.615C37.4299 179.22 37.6395 182.28 37.7233 184.795C37.8071 187.309 37.849 189.154 37.849 190.327V191.71C37.0107 200.764 32.6935 205.626 24.8974 206.297H22.5082C21.6699 206.297 21.125 206.255 20.8736 206.171ZM43.1303 123.809C45.729 123.138 48.7469 121.922 52.1839 120.162C55.7047 118.318 58.9322 116.222 61.8662 113.875C63.8781 112.366 65.9319 110.522 68.0277 108.342C70.2072 106.162 71.9258 104.276 73.1832 102.684C74.3568 101.007 75.4047 99.1208 76.3268 97.025C77.3328 94.9293 78.0872 93.0012 78.5902 91.2408C78.9255 89.648 79.0932 87.8038 79.0932 85.708V84.4506C79.0094 81.9357 78.7159 79.7142 78.213 77.7861C74.6921 67.7266 66.9798 61.104 55.076 57.9185C52.9803 57.4994 50.7588 57.2479 48.4116 57.1641C46.1482 57.0802 44.4716 57.0383 43.3818 57.0383C41.7052 57.0383 40.1963 57.1221 38.855 57.2898C35.6695 57.7928 33.3642 58.673 31.9391 59.9304C30.514 61.104 29.7595 62.9483 29.6757 65.4632V66.3434C29.6757 67.7685 29.8014 70.5349 30.0529 74.6425C30.3044 79.6723 30.6397 85.4146 31.0588 91.8695C31.5618 98.3244 32.0229 104.109 32.442 109.222C32.8612 114.252 33.1546 117.27 33.3222 118.276C33.9091 120.958 35.1246 122.719 36.9688 123.557C37.891 124.06 38.5616 124.312 38.9807 124.312C39.4837 124.312 39.7771 124.312 39.861 124.312C40.6154 124.312 41.7052 124.144 43.1303 123.809Z" fill="#EFF1C5"/>
<path d="M310.205 142.982C309.219 142.03 308.387 140.671 307.709 138.906C307.127 137.107 306.902 135.398 307.035 133.78C307.114 132.777 307.245 131.999 307.429 131.446C307.71 130.859 307.974 130.305 308.224 129.784L309.158 127.828C309.722 126.816 310.333 125.787 310.993 124.741C311.749 123.661 312.854 122.187 314.307 120.319C315.857 118.417 318.056 115.824 320.906 112.542C352.469 74.1328 377.066 48.2102 394.696 34.7735C403.617 27.6655 411.084 24.1868 417.098 24.3375C420.266 24.41 422.928 25.0409 425.082 26.2303C427.236 27.4197 429.006 28.8261 430.393 30.4494C432.936 33.5062 434.527 37.5495 435.167 42.5794C435.807 47.6094 435.608 54.561 434.571 63.4343C434.001 67.6457 433.042 73.6738 431.696 81.5185C430.35 89.3633 428.188 101.262 425.211 117.215C423.887 124.51 422.62 131.352 421.41 137.74C419.702 147.013 418.613 152.979 418.144 155.637C417.157 161.892 416.372 165.881 415.789 167.604C415.302 169.293 414.887 170.497 414.545 171.214C413.86 172.648 413.024 173.81 412.038 174.7C411.152 175.718 409.922 176.532 408.349 177.142C406.873 177.718 405.425 178.067 404.005 178.189C403.133 178.173 402.372 178.089 401.723 177.939C401.139 177.821 400.293 177.496 399.184 176.967C398.076 176.437 397.26 175.967 396.735 175.557C396.211 175.146 395.668 174.606 395.107 173.938C394.71 173.428 394.327 172.804 393.958 172.068C393.655 171.362 393.385 170.753 393.15 170.24C392.773 169.019 392.538 167.666 392.447 166.181C392.387 164.631 392.526 162.495 392.865 159.775C393.301 157.02 393.944 153.243 394.795 148.445C395.525 144.07 395.937 140.944 396.033 139.068C396.128 137.191 395.925 135.773 395.423 134.813C395.018 133.818 394.358 133.103 393.446 132.667C392.533 132.231 392.011 131.981 391.881 131.919C390.186 131.109 387.325 130.143 383.298 129.019C378.978 127.836 372.566 126.174 364.061 124.032C360.198 123.067 357.212 122.361 355.103 121.914C352.995 121.467 351.391 121.221 350.291 121.176C349.191 121.131 348.272 121.213 347.532 121.42C346.277 121.701 344.791 122.632 343.074 124.214C341.454 125.762 338.968 128.618 335.617 132.783C333.181 135.702 331.266 137.95 329.873 139.527C328.479 141.103 327.353 142.286 326.495 143.077C325.667 143.803 324.837 144.367 324.004 144.77C322.82 145.405 321.519 145.865 320.103 146.149C318.717 146.368 317.473 146.374 316.37 146.167C315.56 146.02 314.731 145.744 313.883 145.34L313.199 145.012C312.091 144.483 311.093 143.806 310.205 142.982ZM383.037 103.671C386.999 104.764 390.019 105.566 392.096 106.078C394.27 106.556 395.842 106.787 396.811 106.769C397.845 106.783 398.7 106.671 399.374 106.432C399.952 106.228 400.369 106.027 400.624 105.828C400.944 105.661 401.197 105.382 401.384 104.991C401.667 104.565 402.011 103.929 402.416 103.082C402.977 101.908 403.423 100.64 403.754 99.2766C404.116 97.8482 404.607 95.4803 405.226 92.1729C408.017 76.6109 409.466 67.2939 409.572 64.2219C409.645 61.0536 409.062 59.1735 407.823 58.5817C406.063 57.7407 402.958 59.3799 398.507 63.4993C395.677 66.0707 392.23 69.348 388.164 73.3312C384.165 77.3456 380.437 81.2096 376.981 84.9234C373.556 88.5719 371.324 91.1488 370.284 92.654C369.843 93.2436 369.497 93.7992 369.248 94.3207C368.002 96.9284 368.911 98.9642 371.975 100.428C372.366 100.615 373.602 101.045 375.682 101.719C377.859 102.359 380.31 103.009 383.037 103.671Z" fill="#EFF1C5"/>
<path d="M464.412 188.864C462.819 188.529 461.226 187.732 459.633 186.475C458.124 185.134 456.867 183.667 455.861 182.074C455.442 181.403 455.107 180.774 454.855 180.188C454.687 179.517 454.52 178.763 454.352 177.924C454.184 177.002 453.975 175.703 453.723 174.026C453.556 172.266 453.304 169.08 452.969 164.47C452.634 159.859 452.298 154.871 451.963 149.506C451.795 147.075 451.628 143.973 451.46 140.201C450.622 126.453 449.7 111.238 448.694 94.5557C448.107 84.3285 447.604 75.4426 447.185 67.8979C446.849 60.3533 446.682 55.9103 446.682 54.5691C446.765 53.3954 446.849 52.1799 446.933 50.9225C447.101 49.665 447.227 48.701 447.31 48.0303C447.73 46.4376 448.484 44.9287 449.574 43.5036C450.747 41.9946 452.005 40.821 453.346 39.9827C454.101 39.3959 454.855 39.0187 455.609 38.851C456.364 38.6834 457.621 38.5157 459.382 38.348C460.639 38.1804 461.603 38.0965 462.274 38.0965C462.945 38.0965 463.531 38.1804 464.034 38.348C464.621 38.4319 465.334 38.6834 466.172 39.1025C467.01 39.4378 467.974 39.9827 469.064 40.7372C470.154 41.4078 471.202 42.1623 472.208 43.0006C473.298 43.9227 475.812 46.3957 479.752 50.4195C483.776 54.3595 488.261 58.9701 493.207 64.2514C501.758 73.2211 509.931 81.646 517.727 89.526C525.607 97.3221 531.014 102.729 533.948 105.747C536.882 108.681 538.978 110.777 540.235 112.034C541.493 113.208 542.331 113.92 542.75 114.172C544.092 114.842 545.223 115.136 546.145 115.052C547.99 114.884 549.205 113.292 549.792 110.274C549.96 109.603 550.085 108.765 550.169 107.759C550.337 106.669 550.463 104.951 550.546 102.603C550.714 100.172 550.882 96.6934 551.049 92.1666C551.301 87.6398 551.636 81.5622 552.055 73.9337C552.139 72.0894 552.223 70.0775 552.307 67.8979C552.475 64.3771 552.726 59.3473 553.061 52.8086C553.397 46.1861 553.648 42.288 553.816 41.1144C555.157 31.6417 559.39 26.57 566.516 25.8993C570.372 25.564 573.683 26.6119 576.45 29.043C577.875 30.3842 578.965 31.7674 579.719 33.1925C580.557 34.6176 581.102 36.4619 581.354 38.7253C581.438 39.1444 581.48 39.6893 581.48 40.3599C581.563 40.9467 581.605 41.9108 581.605 43.2521C581.605 44.5095 581.521 46.3538 581.354 48.7848C581.27 51.132 581.144 54.3595 580.977 58.4671C580.893 62.5748 580.725 66.4728 580.474 70.1613C580.306 73.8498 580.013 80.3047 579.593 89.526C579.174 98.6634 578.629 109.477 577.959 121.968C577.623 129.596 577.246 136.219 576.827 141.836C576.492 147.452 576.24 150.722 576.073 151.644C575.15 157.596 572.51 162.039 568.151 164.973C567.312 165.559 566.516 165.979 565.762 166.23C565.007 166.482 563.792 166.691 562.115 166.859C560.438 167.026 559.181 167.068 558.343 166.984C557.588 166.901 556.708 166.649 555.702 166.23C555.031 165.979 554.193 165.559 553.187 164.973C552.181 164.386 551.301 163.799 550.546 163.212C549.624 162.374 547.109 159.901 543.002 155.793C538.978 151.686 534.325 146.949 529.044 141.584C526.026 138.399 522.967 135.213 519.865 132.028L494.842 106.627C490.147 101.597 486.878 98.4957 485.034 97.3221C483.273 96.0647 481.932 95.5198 481.01 95.6874C480.591 95.6874 480.172 95.8132 479.752 96.0647C479.249 96.4 478.83 96.9449 478.495 97.6994C478.16 98.4538 477.992 99.837 477.992 101.849C477.992 103.777 478.076 106.711 478.243 110.651C478.411 114.591 478.663 119.914 478.998 126.621C479.082 128.297 479.208 129.89 479.375 131.399C479.878 140.285 480.297 147.578 480.633 153.278C480.968 158.979 481.178 163.506 481.261 166.859C481.345 170.128 481.387 172.601 481.387 174.278C481.387 175.87 481.261 177.086 481.01 177.924C480.842 178.763 480.633 179.559 480.381 180.313C480.297 180.397 480.213 180.523 480.13 180.691C479.543 182.2 478.579 183.667 477.238 185.092C475.98 186.517 474.681 187.481 473.339 187.984C472.25 188.571 470.992 188.948 469.567 189.115H468.813C467.136 189.283 465.669 189.199 464.412 188.864Z" fill="#EFF1C5"/>
<path d="M587.354 198.783C585.845 198.28 584.294 197.274 582.702 195.765C581.193 194.172 580.103 192.495 579.432 190.735C579.013 189.645 578.762 188.765 578.678 188.094C578.678 187.34 578.678 186.627 578.678 185.957V183.442C578.762 182.101 578.887 180.717 579.055 179.292C579.306 177.783 579.726 175.688 580.312 173.005C580.983 170.239 581.989 166.424 583.33 161.562C597.162 105.564 609.946 66.1224 621.682 43.2369C627.467 31.3331 633.544 23.9561 639.915 21.1059C643.268 19.597 646.37 18.9263 649.22 19.094C652.071 19.2617 654.627 19.8485 656.891 20.8544C661.082 22.7825 664.771 26.2195 667.956 31.1655C671.142 36.1114 674.411 43.4884 677.764 53.2965C679.273 57.9909 681.285 64.7811 683.8 73.667C686.315 82.553 690.003 96.0914 694.865 114.282C697.129 122.582 699.225 130.378 701.153 137.671C704.003 148.233 705.847 155.024 706.685 158.041C708.781 165.083 709.955 169.652 710.206 171.748C710.542 173.76 710.709 175.227 710.709 176.149C710.709 177.993 710.416 179.628 709.829 181.053C709.41 182.562 708.53 184.029 707.188 185.454C705.931 186.795 704.59 187.885 703.165 188.723C702.242 189.142 701.404 189.436 700.65 189.603C699.979 189.771 698.931 189.855 697.506 189.855C696.081 189.855 694.991 189.771 694.237 189.603C693.482 189.436 692.644 189.142 691.722 188.723C691.051 188.388 690.339 187.927 689.584 187.34C688.914 186.753 688.327 186.25 687.824 185.831C686.818 184.741 685.896 183.442 685.057 181.933C684.219 180.34 683.297 178.035 682.291 175.017C681.369 171.915 680.153 167.64 678.644 162.191C677.219 157.245 676.088 153.766 675.249 151.754C674.411 149.742 673.489 148.359 672.483 147.605C671.561 146.766 670.513 146.347 669.339 146.347C668.166 146.347 667.495 146.347 667.327 146.347C665.148 146.347 661.669 146.766 656.891 147.605C651.777 148.527 644.232 149.994 634.257 152.006C629.73 152.928 626.251 153.682 623.82 154.269C621.389 154.856 619.587 155.401 618.413 155.904C617.239 156.407 616.317 156.952 615.647 157.539C614.473 158.461 613.383 160.179 612.377 162.694C611.455 165.125 610.281 169.358 608.856 175.394C607.767 179.67 606.886 182.981 606.216 185.328C605.545 187.675 604.958 189.478 604.455 190.735C603.952 191.909 603.366 192.915 602.695 193.753C601.773 195.01 600.641 196.142 599.3 197.148C597.959 198.07 596.659 198.699 595.402 199.034C594.48 199.286 593.474 199.411 592.384 199.411H591.504C590.079 199.411 588.695 199.202 587.354 198.783ZM643.939 121.198C648.633 120.36 652.196 119.689 654.627 119.186C657.142 118.6 658.903 118.055 659.909 117.552C660.998 117.049 661.837 116.504 662.423 115.917C662.926 115.414 663.262 114.995 663.429 114.66C663.681 114.324 663.807 113.905 663.807 113.402C663.89 112.815 663.932 111.977 663.932 110.887C663.932 109.378 663.765 107.828 663.429 106.235C663.094 104.558 662.423 101.834 661.418 98.0614C656.555 80.3734 653.412 69.8947 651.987 66.6254C650.478 63.2722 648.927 61.5956 647.334 61.5956C645.071 61.5956 642.64 64.8649 640.041 71.4036C638.364 75.5113 636.394 80.6668 634.131 86.8702C631.951 93.0736 629.981 98.9836 628.221 104.6C626.461 110.133 625.413 113.947 625.077 116.043C624.91 116.881 624.826 117.636 624.826 118.306C624.826 121.659 626.796 123.336 630.736 123.336C631.239 123.336 632.748 123.168 635.263 122.833C637.861 122.414 640.754 121.869 643.939 121.198Z" fill="#EFF1C5"/>
<path d="M390.372 329.601C376.727 328.805 365.263 322.342 355.981 310.21C350.115 302.182 346.498 292.761 345.133 281.946C344.961 280.795 344.82 279.67 344.71 278.569C344.455 276.037 344.355 273.657 344.408 271.427C344.484 268.306 344.87 264.959 345.567 261.387C347.367 251.643 350.942 242.972 356.294 235.373C361.7 227.768 368.148 222.227 375.638 218.75C379.05 217.295 382.434 216.398 385.792 216.061C388.764 215.762 391.725 215.909 394.676 216.501C400.919 217.764 406.182 220.904 410.468 225.921C413.211 229.426 414.729 232.637 415.022 235.554C415.283 238.141 414.574 240.492 412.896 242.606C411.56 244.242 409.68 245.181 407.259 245.425C405.387 245.613 403.777 245.358 402.428 244.66C401.074 243.907 399.598 242.498 398 240.435C396.794 238.944 395.767 237.852 394.919 237.159C394.065 236.411 393.146 235.836 392.16 235.435C390.657 234.863 389.08 234.661 387.429 234.827C384.402 235.131 381.138 236.682 377.639 239.481C376.209 240.736 374.726 242.303 373.192 244.181C371.657 246.059 370.345 247.942 369.257 249.831C366.199 255.364 364.207 261.541 363.281 268.362C363.079 270.773 363.047 272.944 363.186 274.876C363.379 276.803 363.498 277.986 363.543 278.426C363.814 281.123 364.192 283.504 364.678 285.567C367.038 293.558 370.818 299.905 376.017 304.609C381.21 309.257 386.779 311.282 392.723 310.684C394.209 310.535 395.516 310.264 396.644 309.873C397.772 309.482 398.967 308.917 400.227 308.178C404.574 305.517 407.838 301.214 410.02 295.268C411.553 291.166 412.215 288.07 412.004 285.978C411.833 284.272 411.114 283.205 409.848 282.776C408.24 282.27 405.703 282.192 402.235 282.541C400.083 282.702 397.843 282.816 395.514 282.883C393.241 282.945 391.598 282.916 390.585 282.795C387.376 282.395 384.959 281.026 383.334 278.687C382.943 278.115 382.67 277.615 382.515 277.185C382.356 276.701 382.217 275.881 382.101 274.725C381.985 273.569 381.96 272.766 382.026 272.314C382.086 271.808 382.251 271.235 382.52 270.597C383.735 267.75 386.131 265.869 389.708 264.953C390.033 264.865 390.636 264.777 391.516 264.688C392.397 264.6 393.528 264.514 394.909 264.43C397.661 264.153 400.777 263.896 404.255 263.657C407.783 263.358 410.959 263.15 413.783 263.032C416.601 262.86 418.429 262.788 419.265 262.815C423.234 263.027 426.232 264.088 428.258 265.997C430.34 267.9 431.583 270.861 431.987 274.878C432.397 278.951 431.943 284.112 430.625 290.36C428.325 301.766 424.376 310.587 418.776 316.821C413.984 322.251 408.191 326.002 401.394 328.076C399.941 328.556 398.529 328.892 397.159 329.086C395.783 329.224 394.847 329.318 394.352 329.368C392.866 329.517 391.539 329.595 390.372 329.601Z" fill="#EFF1C5"/>
<path d="M473.512 320.967C464.717 319.695 457.111 315.74 450.694 309.102C444.277 302.408 439.907 293.889 437.583 283.545C437.418 282.605 437.224 281.581 437.003 280.475C436.837 279.313 436.698 278.317 436.588 277.488C436.366 275.441 436.256 272.979 436.256 270.103C436.256 267.281 436.366 264.848 436.588 262.801C438.081 251.405 441.788 241.614 447.707 233.427C453.681 225.185 461.177 219.487 470.193 216.334C473.623 215.117 477.219 214.508 480.98 214.508C481.589 214.508 482.197 214.536 482.806 214.591C492.818 215.034 501.531 219.127 508.943 226.872C514.586 232.957 518.347 239.512 520.228 246.537C522.109 253.563 523.049 259.814 523.049 265.29C523.049 268.941 522.745 272.62 522.137 276.326C519.647 289.713 514.171 300.61 505.707 309.019C499.18 315.214 492.099 319.059 484.465 320.553C482.916 320.774 481.423 320.912 479.985 320.967C478.546 321.023 477.495 321.05 476.831 321.05C475.559 321.05 474.453 321.023 473.512 320.967ZM482.142 301.8C482.64 301.634 483.248 301.413 483.967 301.136C484.742 300.859 485.461 300.555 486.125 300.223C493.537 296.351 498.405 290.875 500.729 283.794C503.107 276.658 504.297 270.573 504.297 265.539C504.297 261.003 503.633 256.412 502.305 251.765C501.697 249.995 500.895 248.169 499.899 246.288C498.903 244.408 497.852 242.803 496.746 241.476C492.984 236.884 489.665 234.395 486.789 234.008C483.967 233.565 482.142 233.344 481.312 233.344C477.329 233.344 473.374 234.755 469.447 237.576C464.579 241.282 460.928 246.15 458.494 252.18C456.115 258.154 454.926 264.073 454.926 269.937C454.926 271.209 454.981 272.481 455.092 273.754C455.977 283.711 459.268 291.428 464.966 296.904C468.838 300.5 473.098 302.298 477.744 302.298C479.182 302.298 480.648 302.132 482.142 301.8Z" fill="#EFF1C5"/>
<path d="M542.208 325.404C541.326 325.118 540.583 324.778 539.978 324.385C539.374 323.992 538.771 323.487 538.168 322.873C536.745 321.42 535.824 319.557 535.404 317.285C535.3 316.675 534.933 311.997 534.304 303.25C533.73 294.448 532.8 279.944 531.514 259.739C530.891 250.383 530.434 243.685 530.143 239.643C529.908 235.603 529.744 232.697 529.652 230.925C529.452 228.821 529.36 226.995 529.376 225.446C529.387 224.395 529.452 223.483 529.57 222.709C529.811 220.831 530.325 219.26 531.112 217.995C531.845 216.675 532.99 215.58 534.548 214.711C536.106 213.842 538.354 213.091 541.293 212.457C544.011 211.766 546.477 211.293 548.693 211.039C550.908 210.785 553.343 210.672 555.998 210.699C567.393 210.816 577.706 213.992 586.936 220.228C598.967 228.428 605.96 239.674 607.916 253.967C608.171 256.072 608.284 258.452 608.257 261.107L608.243 262.518C608.099 265.725 607.737 268.681 607.156 271.385C603.326 288.827 592.861 303.214 575.761 314.545C570.026 318.138 564.162 320.899 558.167 322.829C552.228 324.76 547.765 325.71 544.778 325.679C543.838 325.669 542.981 325.577 542.208 325.404ZM560.874 301.614C561.542 301.289 562.348 300.854 563.294 300.311C564.296 299.712 565.187 299.141 565.967 298.596C574.599 292.986 580.976 286.136 585.098 278.047C587.973 272.821 589.443 267.027 589.508 260.666C589.582 253.42 587.68 247.398 583.802 242.6C577.193 234.345 568.083 229.909 556.472 229.292C555.531 229.282 554.784 229.302 554.23 229.352C553.732 229.402 553.289 229.481 552.9 229.587C552.568 229.639 552.179 229.773 551.734 229.99C550.678 230.532 549.952 231.217 549.556 232.042C549.161 232.813 548.957 233.806 548.944 235.023L548.934 236.019C548.926 236.849 549.083 240.419 549.405 246.728C549.783 253.039 550.209 260.097 550.682 267.902C551.211 275.652 551.666 282.516 552.047 288.495C552.428 294.474 552.67 297.851 552.773 298.626C553.14 300.566 553.902 301.846 555.057 302.467C555.442 302.692 555.939 302.808 556.547 302.814C557.653 302.825 559.096 302.425 560.874 301.614Z" fill="#EFF1C5"/>
<path d="M624.978 315.787C623.319 315.345 621.853 314.404 620.58 312.966C619.087 311.417 618.34 309.398 618.34 306.909C618.34 305.913 618.534 304.807 618.921 303.59C619.308 302.373 620.138 300.492 621.41 297.947C622.738 295.402 624.674 291.724 627.219 286.911C628.491 284.588 629.763 282.237 631.035 279.858C632.308 277.48 633.276 275.654 633.94 274.382C634.548 273.109 634.991 272.141 635.267 271.478C635.599 270.758 635.82 270.178 635.931 269.735C636.042 269.237 636.125 268.684 636.18 268.075V267.329C636.18 266.831 636.152 266.416 636.097 266.084C635.986 265.642 635.738 264.978 635.35 264.093C634.963 263.318 633.442 260.774 630.787 256.459C628.131 252.089 624.978 246.944 621.327 241.025C617.621 235.106 614.468 230.017 611.868 225.757C609.268 221.498 607.802 219.092 607.47 218.538C606.419 216.436 605.894 214.5 605.894 212.73C605.894 210.185 606.917 207.973 608.964 206.092C610.679 204.709 612.532 204.017 614.523 204.017H615.187C617.455 204.183 619.557 205.179 621.493 207.005C621.825 207.337 622.157 207.724 622.489 208.166C622.821 208.554 623.291 209.245 623.899 210.241C624.563 211.181 625.504 212.647 626.721 214.639C627.993 216.575 629.708 219.285 631.865 222.77C632.584 223.932 633.359 225.177 634.189 226.504C636.789 230.653 639.029 234.249 640.91 237.291C642.846 240.278 643.98 242.021 644.312 242.519C645.363 243.846 646.414 244.51 647.465 244.51C648.903 244.51 650.341 243.21 651.78 240.61C652.056 240.112 652.803 238.729 654.02 236.461C655.237 234.193 656.703 231.483 658.418 228.33C659.082 227.057 659.773 225.757 660.492 224.43C662.871 219.894 664.779 216.298 666.218 213.643C667.656 210.932 668.735 208.885 669.454 207.503C670.228 206.12 670.837 205.124 671.279 204.515C671.722 203.907 672.137 203.381 672.524 202.939C674.349 200.892 676.617 199.869 679.328 199.869C682.204 199.869 684.39 200.809 685.883 202.69C687.377 204.183 688.123 206.258 688.123 208.913V209.411L688.206 209.909L688.123 210.573C688.068 210.96 687.875 211.568 687.543 212.398C687.211 213.173 686.658 214.307 685.883 215.8C685.164 217.294 684.141 219.341 682.813 221.94C681.485 224.485 679.77 227.749 677.668 231.732C675.566 235.715 672.994 240.555 669.952 246.253C668.624 248.853 667.158 251.646 665.554 254.633C663.562 258.395 661.516 262.267 659.414 266.25C655.597 273.441 652.665 278.973 650.618 282.845C647.188 289.318 644.422 294.517 642.32 298.445C640.218 302.317 638.586 305.277 637.425 307.323C636.318 309.315 635.433 310.753 634.769 311.638C634.161 312.523 633.635 313.132 633.193 313.464C632.031 314.459 630.842 315.123 629.625 315.455C628.463 315.787 627.467 315.953 626.638 315.953C626.085 315.953 625.531 315.898 624.978 315.787Z" fill="#EFF1C5"/>
<path d="M196.069 322.455C193.248 321.681 191.201 319.966 189.928 317.31C189.375 316.149 189.099 314.904 189.099 313.577C189.099 312.138 189.431 310.617 190.094 309.013C190.371 308.349 191.256 306.634 192.75 303.868C194.243 301.047 195.986 297.811 197.977 294.16C199.969 290.564 201.905 287.079 203.786 283.705C205.666 280.275 207.022 277.786 207.851 276.237C208.626 274.854 209.815 272.697 211.419 269.765C213.079 266.833 214.849 263.68 216.73 260.306C217.283 259.254 217.836 258.231 218.389 257.235C220.547 253.308 222.372 249.933 223.866 247.112C225.415 244.291 226.3 242.659 226.521 242.217C226.908 241.276 227.074 240.391 227.019 239.561C227.019 238.676 226.798 238.012 226.355 237.57C226.023 237.238 225.664 236.989 225.277 236.823C224.889 236.657 224.308 236.574 223.534 236.574H222.953C221.902 236.574 220.243 236.712 217.975 236.989C215.762 237.21 212.664 237.542 208.681 237.985C204.643 238.427 201.545 238.759 199.388 238.98C197.23 239.202 195.82 239.312 195.156 239.312C194.492 239.312 193.994 239.312 193.662 239.312C193.054 239.312 192.528 239.285 192.086 239.229C187.163 238.344 184.48 235.578 184.037 230.932V230.351C184.037 226.202 186.305 223.326 190.841 221.721C191.45 221.555 192.086 221.417 192.75 221.306C193.413 221.14 194.409 220.975 195.737 220.809C197.064 220.587 198.973 220.338 201.462 220.062C204.007 219.73 207.381 219.315 211.585 218.817C217.67 218.153 222.538 217.628 226.189 217.241C229.896 216.798 232.744 216.466 234.736 216.245C236.727 216.024 238.166 215.885 239.051 215.83C239.991 215.719 240.71 215.636 241.208 215.581H242.536C247.902 215.581 251.774 217.545 254.152 221.472C254.429 221.915 254.623 222.302 254.733 222.634C254.844 222.966 254.899 223.353 254.899 223.796C254.955 224.238 254.982 224.902 254.982 225.787C254.982 227.059 254.927 227.972 254.816 228.525C254.761 229.079 254.512 229.77 254.069 230.6C253.738 231.762 244.859 248.025 227.434 279.39C225.774 282.377 224.281 285.116 222.953 287.605C221.626 290.039 220.768 291.671 220.381 292.5C219.33 294.437 218.804 295.93 218.804 296.981C218.804 297.313 218.86 297.59 218.97 297.811C219.302 298.862 220.519 299.388 222.621 299.388C223.119 299.388 224.419 299.249 226.521 298.973C228.679 298.641 231.113 298.226 233.823 297.728C237.529 297.009 240.323 296.511 242.204 296.234C244.14 295.958 245.606 295.82 246.602 295.82H247.099C248.15 295.82 249.119 295.958 250.004 296.234C252.216 296.954 253.821 298.115 254.816 299.719C255.867 301.324 256.393 302.9 256.393 304.449C256.393 304.947 256.337 305.472 256.227 306.026C255.618 309.732 253.212 312.249 249.008 313.577C248.344 313.798 245.716 314.351 241.125 315.236C236.589 316.121 231.168 317.145 224.862 318.306C217.449 319.689 211.807 320.713 207.934 321.376C204.062 322.04 201.545 322.427 200.384 322.538C199.222 322.593 198.392 322.621 197.894 322.621C197.12 322.621 196.511 322.566 196.069 322.455Z" fill="#EFF1C5"/>
<path d="M123.448 330.088C120.129 328.816 118.055 326.023 117.225 321.708C116.893 320.491 115.953 309.068 114.404 287.438L113.491 275.075C112.882 266.445 112.357 259.309 111.914 253.667C111.527 248.024 111.14 242.88 110.753 238.233C110.421 233.587 110.199 230.35 110.089 228.525C110.034 226.699 110.006 225.372 110.006 224.542C110.006 223.27 110.061 222.246 110.172 221.472C110.282 220.144 110.531 219.093 110.919 218.319C111.582 216.715 112.716 215.387 114.321 214.336C115.925 213.23 118.386 212.123 121.706 211.017C128.565 208.859 134.954 207.781 140.873 207.781C151.715 207.781 160.954 211.404 168.587 218.651C173.566 223.629 176.553 228.359 177.549 232.84C178.545 237.32 179.042 240.833 179.042 243.378C179.042 247.471 178.323 251.592 176.885 255.741C174.285 263.099 169.362 270.124 162.115 276.817C160.179 278.643 158.713 280.053 157.717 281.049C156.722 281.99 156.03 282.709 155.643 283.207C155.256 283.704 155.035 284.119 154.979 284.451V284.866C154.979 285.972 155.671 286.858 157.054 287.521C157.496 287.687 158.492 287.964 160.041 288.351C161.59 288.738 163.36 289.153 165.351 289.596C169.445 290.426 172.349 291.062 174.064 291.504C175.779 291.947 177.023 292.389 177.798 292.832C178.683 293.274 179.513 293.883 180.287 294.657C181.062 295.432 181.67 296.206 182.113 296.981C182.5 297.921 182.721 298.779 182.776 299.553C182.832 300.272 182.859 300.742 182.859 300.964C182.859 301.959 182.749 302.872 182.527 303.702C182.14 304.698 181.504 305.666 180.619 306.606C179.789 307.546 178.877 308.266 177.881 308.763C177.383 309.04 176.94 309.234 176.553 309.344C176.221 309.455 175.779 309.51 175.226 309.51C174.728 309.51 173.981 309.51 172.985 309.51C171.989 309.51 171.021 309.483 170.081 309.427C169.196 309.317 167.868 309.095 166.098 308.763C164.328 308.431 161.756 307.934 158.381 307.27C153.735 306.329 150.028 305.61 147.262 305.112C144.552 304.559 142.616 304.227 141.454 304.117C140.292 303.951 139.435 303.868 138.882 303.868C138.495 303.868 138.19 303.895 137.969 303.951C137.305 304.117 136.78 304.393 136.392 304.781C135.895 305.168 135.535 305.61 135.314 306.108C135.148 306.606 135.065 307.214 135.065 307.934C135.065 308.597 135.065 309.178 135.065 309.676C135.065 310.561 135.092 311.668 135.148 312.995C135.258 315.374 135.314 317.338 135.314 318.887V320.214C135.258 321.763 135.092 323.008 134.816 323.948C133.82 326.935 131.995 328.954 129.339 330.005C128.51 330.282 127.514 330.42 126.352 330.42C125.135 330.42 124.167 330.31 123.448 330.088ZM137.886 272.005C139.214 271.341 141.039 270.124 143.362 268.354C145.686 266.584 147.733 264.841 149.503 263.126C154.315 258.701 157.524 254.248 159.128 249.767C159.515 248.827 159.764 247.997 159.875 247.278C159.985 246.503 160.068 245.48 160.124 244.208C160.179 243.212 160.207 242.437 160.207 241.884C160.207 241.331 160.124 240.833 159.958 240.391C159.847 239.893 159.681 239.312 159.46 238.648C157.966 234.333 155.477 231.236 151.992 229.355C148.507 227.419 144.745 226.451 140.707 226.451C139.712 226.451 138.66 226.506 137.554 226.616C134.567 226.893 132.437 227.557 131.165 228.608C129.893 229.659 129.256 231.263 129.256 233.421C129.256 233.974 129.367 235.965 129.588 239.395C129.81 242.825 130.086 246.642 130.418 250.846C130.75 255.05 131.027 258.811 131.248 262.131C131.524 265.45 131.718 267.441 131.829 268.105C132.271 271.258 133.405 272.834 135.231 272.834C136.005 272.834 136.89 272.558 137.886 272.005Z" fill="#EFF1C5"/>
<path d="M44.6032 327.517C41.1182 326.355 38.8778 323.81 37.8821 319.883C37.7715 319.33 37.6332 318.528 37.4672 317.476C37.3566 316.37 37.1906 314.6 36.9694 312.166C36.8034 309.732 36.5545 306.192 36.2226 301.545C36.1673 300.936 36.112 300.3 36.0566 299.637C34.895 283.262 33.9822 270.539 33.3184 261.467C32.6546 252.34 32.1567 245.563 31.8248 241.138C31.4929 236.713 31.244 233.31 31.078 230.932C30.9121 229.051 30.8291 227.419 30.8291 226.036C30.8291 224.598 30.9121 223.436 31.078 222.551C31.4099 220.726 32.1844 219.177 33.4014 217.904C35.5588 215.636 39.0715 213.839 43.9394 212.511C48.8627 211.183 54.3668 210.52 60.4518 210.52C63.4943 210.52 66.0112 210.63 68.0027 210.851C69.9941 211.073 72.1515 211.571 74.4748 212.345C82.9385 215 89.7979 219.758 95.0531 226.617C97.1551 229.494 98.8147 232.813 100.032 236.574C101.249 240.336 101.857 244.014 101.857 247.61C101.857 253.916 100.225 259.974 96.9615 265.782C93.6978 271.59 89.0234 276.818 82.9385 281.465C79.5088 284.065 76.162 286.167 72.8983 287.771C69.6899 289.32 65.541 290.896 60.4518 292.501C57.0221 293.441 55.1689 295.156 54.8923 297.645C54.8923 298.088 54.92 299.222 54.9753 301.047C55.0306 302.873 55.1413 304.975 55.3072 307.353C55.5285 309.732 55.6668 311.751 55.7221 313.411C55.7774 315.07 55.8051 316.287 55.8051 317.062V317.974C55.2519 323.949 52.403 327.157 47.2585 327.6H45.6819C45.1288 327.6 44.7692 327.572 44.6032 327.517ZM59.2901 273.167C61.005 272.724 62.9964 271.922 65.2644 270.761C67.5878 269.544 69.7175 268.161 71.6536 266.612C72.9813 265.616 74.3366 264.399 75.7195 262.961C77.1578 261.523 78.2918 260.278 79.1215 259.227C79.896 258.12 80.5875 256.876 81.196 255.493C81.8598 254.11 82.3576 252.838 82.6895 251.676C82.9108 250.625 83.0214 249.408 83.0214 248.025V247.195C82.9661 245.536 82.7725 244.07 82.4406 242.797C80.1173 236.159 75.028 231.789 67.1729 229.687C65.7899 229.411 64.324 229.245 62.7751 229.189C61.2815 229.134 60.1752 229.106 59.4561 229.106C58.3497 229.106 57.354 229.162 56.4689 229.272C54.3668 229.604 52.8456 230.185 51.9052 231.015C50.9648 231.789 50.4669 233.006 50.4116 234.666V235.247C50.4116 236.187 50.4946 238.012 50.6605 240.723C50.8265 244.042 51.0478 247.831 51.3243 252.091C51.6563 256.35 51.9605 260.167 52.2371 263.542C52.5137 266.861 52.7073 268.852 52.8179 269.516C53.2052 271.286 54.0073 272.448 55.2242 273.001C55.8327 273.333 56.2753 273.499 56.5519 273.499C56.8838 273.499 57.0774 273.499 57.1327 273.499C57.6306 273.499 58.3497 273.388 59.2901 273.167Z" fill="#EFF1C5"/>
<path d="M278.127 339.325C276.467 338.883 275.001 337.942 273.729 336.504C272.235 334.955 271.488 332.936 271.488 330.447C271.488 329.451 271.682 328.345 272.069 327.128C272.457 325.911 273.286 324.03 274.559 321.485C275.886 318.941 277.822 315.262 280.367 310.449C281.639 308.126 282.912 305.775 284.184 303.396C285.456 301.018 286.424 299.192 287.088 297.92C287.697 296.648 288.139 295.679 288.416 295.016C288.748 294.297 288.969 293.716 289.08 293.273C289.19 292.775 289.273 292.222 289.328 291.614V290.867C289.328 290.369 289.301 289.954 289.246 289.622C289.135 289.18 288.886 288.516 288.499 287.631C288.111 286.856 286.59 284.312 283.935 279.997C281.28 275.627 278.127 270.482 274.476 264.563C270.769 258.644 267.616 253.555 265.016 249.295C262.416 245.036 260.95 242.63 260.619 242.076C259.568 239.974 259.042 238.038 259.042 236.268C259.042 233.724 260.065 231.511 262.112 229.63C263.827 228.247 265.68 227.556 267.672 227.556H268.335C270.603 227.722 272.705 228.717 274.642 230.543C274.974 230.875 275.305 231.262 275.637 231.704C275.969 232.092 276.439 232.783 277.048 233.779C277.712 234.719 278.652 236.185 279.869 238.177C281.141 240.113 282.856 242.823 285.014 246.308C285.733 247.47 286.507 248.715 287.337 250.042C289.937 254.191 292.177 257.787 294.058 260.829C295.994 263.816 297.128 265.559 297.46 266.057C298.511 267.384 299.562 268.048 300.613 268.048C302.052 268.048 303.49 266.748 304.928 264.148C305.205 263.65 305.951 262.267 307.168 259.999C308.385 257.731 309.851 255.021 311.566 251.868C312.23 250.595 312.922 249.295 313.641 247.968C316.019 243.432 317.928 239.836 319.366 237.181C320.804 234.47 321.883 232.424 322.602 231.041C323.377 229.658 323.985 228.662 324.428 228.053C324.87 227.445 325.285 226.919 325.672 226.477C327.498 224.43 329.766 223.407 332.476 223.407C335.353 223.407 337.538 224.347 339.032 226.228C340.525 227.722 341.272 229.796 341.272 232.451V232.949L341.355 233.447L341.272 234.111C341.217 234.498 341.023 235.106 340.691 235.936C340.359 236.711 339.806 237.845 339.032 239.338C338.312 240.832 337.289 242.879 335.961 245.479C334.634 248.023 332.919 251.287 330.817 255.27C328.715 259.253 326.142 264.093 323.1 269.791C321.772 272.391 320.306 275.184 318.702 278.171C316.711 281.933 314.664 285.805 312.562 289.788C308.745 296.979 305.813 302.511 303.766 306.383C300.337 312.856 297.571 318.055 295.469 321.983C293.367 325.855 291.735 328.815 290.573 330.862C289.467 332.853 288.582 334.291 287.918 335.176C287.309 336.061 286.784 336.67 286.341 337.002C285.18 337.998 283.99 338.661 282.773 338.993C281.612 339.325 280.616 339.491 279.786 339.491C279.233 339.491 278.68 339.436 278.127 339.325Z" fill="#EFF1C5"/>
</svg>
